<?xml version="1.0" encoding="utf-8"?>
<!-- Generator: Adobe Illustrator 15.0.0, SVG Export Plug-In  -->
<!DOCTYPE svg PUBLIC "-//W3C//DTD SVG 1.1//EN" "http://www.w3.org/Graphics/SVG/1.1/DTD/svg11.dtd" [
	<!ENTITY ns_flows "http://ns.adobe.com/Flows/1.0/">
]>
<svg version="1.1"
	 xmlns="http://www.w3.org/2000/svg" xmlns:xlink="http://www.w3.org/1999/xlink" xmlns:a="http://ns.adobe.com/AdobeSVGViewerExtensions/3.0/"
	 x="0px" y="0px" width="75px" height="34px" viewBox="0.534 -0.252 75 34" enable-background="new 0.534 -0.252 75 34"
	 xml:space="preserve">
<defs>
</defs>
<g id="Fizo_1_">
	<g>
		<path fill-rule="evenodd" clip-rule="evenodd" fill="#FFFFFF" d="M0,31.481h7.611V20.808h8.191v-5.703H7.611V10.25h10.973V4.2H0
			V31.481z M21.713,31.481h7.611V9.864h-7.611V31.481z M25.577,0c-1.339,0-2.421,0.365-3.246,1.098s-1.236,1.664-1.236,2.794
			c0,1.079,0.412,1.979,1.236,2.697c0.824,0.72,1.906,1.079,3.246,1.079c1.313,0,2.376-0.359,3.188-1.079
			c0.812-0.719,1.217-1.618,1.217-2.697c0-1.13-0.4-2.062-1.198-2.794C27.985,0.365,26.916,0,25.577,0z M49.725,15.798V9.864H32.416
			v6.281h8.655l-8.81,9.363v5.973h17.851V25.2h-9.505L49.725,15.798z M73.1,14.777c-0.979-1.683-2.325-2.967-4.037-3.854
			c-1.714-0.887-3.652-1.329-5.815-1.329s-4.108,0.442-5.834,1.329s-3.078,2.164-4.058,3.834c-0.979,1.67-1.467,3.636-1.467,5.896
			c0,2.261,0.488,4.227,1.467,5.896c0.979,1.671,2.332,2.955,4.058,3.854c1.726,0.899,3.671,1.349,5.834,1.349
			s4.102-0.449,5.815-1.349c1.712-0.898,3.058-2.183,4.037-3.854c0.979-1.669,1.468-3.635,1.468-5.896
			C74.568,18.419,74.079,16.46,73.1,14.777z M65.836,24.025c-0.695,0.784-1.559,1.175-2.589,1.175c-1.057,0-1.932-0.385-2.628-1.155
			c-0.695-0.771-1.043-1.901-1.043-3.392c0-1.464,0.348-2.581,1.043-3.353c0.696-0.771,1.571-1.155,2.628-1.155
			c1.03,0,1.894,0.385,2.589,1.155c0.695,0.771,1.043,1.889,1.043,3.353C66.879,22.118,66.532,23.242,65.836,24.025z"/>
	</g>
</g>
<g id="Rectangle_1_1_">
	<g>
		<rect x="52.807" y="0.882" fill-rule="evenodd" clip-rule="evenodd" fill="#F9DC93" width="21.59" height="5.666"/>
	</g>
</g>
</svg>
