<?xml version="1.0"?>
<svg xmlns="http://www.w3.org/2000/svg" height="512px" viewBox="-32 0 480 480" width="512px" class=""><g><path d="m394.910156 231.601562-83.09375-83.097656c-2.355468-2.28125-4.980468-4.269531-7.816406-5.917968v-134.585938c0-4.417969-3.582031-8-8-8h-256c-22.082031.0273438-39.9726562 17.917969-40 40v320c.0273438 22.082031 17.917969 39.972656 40 40h192.40625c4.171875 45.277344 42.125 79.941406 87.59375 80h88c4.417969 0 8-3.582031 8-8v-189.496094c.050781-19.101562-7.542969-37.433594-21.089844-50.902344zm-378.910156 128.398438v-320c0-13.253906 10.746094-24 24-24h248v300.6875l-56.167969-56.167969c-10.035156-10.453125-24.941406-14.660156-38.960937-11-14.023438 3.660157-24.964844 14.617188-28.609375 28.644531-3.644531 14.027344.582031 28.925782 11.050781 38.949219l9.597656 9.648438c.058594.054687.074219.132812.128906.191406.058594.054687.128907.070313.191407.125l39.722656 39.777344c4.511719 4.484375 7.050781 10.582031 7.046875 16.945312l-192 .199219c-13.253906 0-24-10.746094-24-24zm170.601562-54.230469c-4.527343-4.488281-7.074218-10.601562-7.074218-16.972656 0-6.375 2.546875-12.484375 7.074218-16.972656 9.476563-9.058594 24.402344-9.058594 33.878907 0l4.191406 4.183593-33.929687 33.929688zm213.398438 158.230469h-80c-39.746094-.042969-71.957031-32.253906-72-72v-8.199219c.023438-10.605469-4.1875-20.777343-11.695312-28.265625l-34.242188-34.289062 33.9375-33.933594 78.34375 78.34375c3.140625 3.03125 8.128906 2.988281 11.214844-.097656 3.085937-3.085938 3.128906-8.074219.097656-11.214844l-21.65625-21.65625v-169.367188l79.601562 79.589844c10.53125 10.480469 16.433594 24.738282 16.398438 39.59375zm0 0" data-original="#000000" class="active-path" data-old_color="#ffffff" fill="#ffffff"/><path d="m40 96c4.417969 0 8-3.582031 8-8v-32c0-4.417969 3.582031-8 8-8h32c4.417969 0 8-3.582031 8-8s-3.582031-8-8-8h-32c-13.253906 0-24 10.746094-24 24v32c0 4.417969 3.582031 8 8 8zm0 0" data-original="#000000" class="active-path" data-old_color="#ffffff" fill="#ffffff"/><path d="m88 352h-32c-4.417969 0-8-3.582031-8-8v-32c0-4.417969-3.582031-8-8-8s-8 3.582031-8 8v32c0 13.253906 10.746094 24 24 24h32c4.417969 0 8-3.582031 8-8s-3.582031-8-8-8zm0 0" data-original="#000000" class="active-path" data-old_color="#ffffff" fill="#ffffff"/><path d="m232 136c0-44.183594-35.816406-80-80-80s-80 35.816406-80 80 35.816406 80 80 80c44.164062-.046875 79.953125-35.835938 80-80zm-16.550781-8h-15.679688c-.652343-15.484375-4.519531-30.664062-11.363281-44.566406 14.929688 10.34375 24.761719 26.546875 27.042969 44.566406zm-71.449219-53.601562v53.601562h-23.71875c1.765625-27.070312 12.304688-47.039062 23.71875-53.601562zm0 69.601562v53.601562c-11.414062-6.585937-21.953125-26.554687-23.71875-53.601562zm16 53.601562v-53.601562h23.71875c-1.765625 27.070312-12.304688 47.039062-23.71875 53.601562zm0-69.601562v-53.601562c11.414062 6.585937 21.953125 26.554687 23.71875 53.601562zm-44.40625-44.566406c-6.84375 13.902344-10.710938 29.082031-11.363281 44.566406h-15.679688c2.28125-18.019531 12.113281-34.222656 27.042969-44.566406zm-27.042969 60.566406h15.679688c.652343 15.484375 4.519531 30.664062 11.363281 44.566406-14.929688-10.34375-24.761719-26.546875-27.042969-44.566406zm99.855469 44.566406c6.84375-13.902344 10.710938-29.082031 11.363281-44.566406h15.679688c-2.28125 18.019531-12.113281 34.222656-27.042969 44.566406zm0 0" data-original="#000000" class="active-path" data-old_color="#ffffff" fill="#ffffff"/></g> </svg>
