<?xml version="1.0"?>
<svg xmlns="http://www.w3.org/2000/svg" xmlns:xlink="http://www.w3.org/1999/xlink" version="1.1" id="Capa_1" x="0px" y="0px" viewBox="0 0 512 512" style="enable-background:new 0 0 512 512;" xml:space="preserve" width="512px" height="512px" class=""><g><g>
	<path d="M476,438V0H66v189.58c-17.459,6.192-30,22.865-30,42.42v280h270v-42.934L337.066,438H476z M126,30v129.58   c-13.807,4.897-24.53,16.35-28.414,30.601c-0.525-0.209-1.052-0.411-1.586-0.601V30H126z M66,482V232c0-8.271,6.729-15,15-15   s15,6.729,15,15v97h30V202c0-8.271,6.729-15,15-15s15,6.729,15,15v127h30V172c0-8.271,6.729-15,15-15s15,6.729,15,15v157h30V202   c0-8.271,6.729-15,15-15s15,6.729,15,15v280H66z M306,202c0-24.813-20.187-45-45-45c-5.857,0-11.449,1.137-16.586,3.181   C239.209,141.085,221.723,127,201,127s-38.209,14.085-43.414,33.181c-0.525-0.209-1.052-0.411-1.586-0.601V30h290v378h-78.934   l32.142-32.142c8.5-8.5,13.181-19.8,13.181-31.82s-4.681-23.321-13.181-31.82c-8.499-8.5-19.8-13.18-31.819-13.18   c-12.021,0-23.321,4.681-31.82,13.18L306,341.787V202z M306.031,384.182l50.75-50.75c5.851-5.849,15.365-5.848,21.214,0   c5.849,5.849,5.849,15.365,0,21.214l-71.75,71.75L306.031,384.182z" data-original="#000000" class="active-path" data-old_color="#ffffff" fill="#ffffff"/>
	<rect x="346" y="60" width="70" height="30" data-original="#000000" class="active-path" data-old_color="#ffffff" fill="#ffffff"/>
	<rect x="306" y="120" width="110" height="30" data-original="#000000" class="active-path" data-old_color="#ffffff" fill="#ffffff"/>
</g></g> </svg>
