<svg height="512pt" viewBox="-1 0 512 512.00101" width="512pt" xmlns="http://www.w3.org/2000/svg"><path d="m142.859375 504.402344v.007812h-135.257813v-.007812c0-37.347656 30.277344-67.636719 67.625-67.636719 5.042969 0 9.964844.566406 14.6875 1.601563.230469.050781.453126.101562.675782.152343 12.511718 2.90625 23.683594 9.289063 32.464844 18.058594 12.238281 12.238281 19.804687 29.15625 19.804687 47.824219zm0 0" fill="#cc0b4b"/><path d="m142.859375 504.402344v.007812h-105.882813v-.007812c0-32.304688 22.648438-59.332032 52.9375-66.035156.230469.050781.453126.101562.675782.152343 12.511718 2.90625 23.683594 9.289063 32.464844 18.058594 12.238281 12.238281 19.804687 29.15625 19.804687 47.824219zm0 0" fill="#ea4455"/><path d="m142.863281 354.410156v46.054688c0 32.960937-23.578125 60.410156-54.789062 66.410156-4.15625.804688-8.453125 1.222656-12.84375 1.222656-37.351563 0-67.628907-30.28125-67.628907-67.628906v-46.058594c0-37.351562 30.277344-67.632812 67.628907-67.632812 4.390625 0 8.6875.417968 12.84375 1.21875 13.527343 2.597656 25.617187 9.230468 34.980469 18.589844 12.234374 12.238281 19.808593 29.148437 19.808593 47.824218zm0 0" fill="#c99061"/><path d="m86.882812 467.09375c-3.789062.660156-7.679687 1.003906-11.660156 1.003906-37.347656 0-67.625-30.277344-67.625-67.636718v-46.046876c0-37.359374 30.277344-67.636718 67.625-67.636718 3.980469 0 7.871094.34375 11.660156 1.003906-31.796874 5.507812-55.984374 33.242188-55.984374 66.632812v46.046876c0 33.386718 24.1875 61.121093 55.984374 66.632812zm0 0" fill="#ad7449"/><path d="m142.863281 354.410156v9.984375c-80.066406-.101562-106.683593-32.847656-106.683593-32.847656 0 13.601563-13.601563 27.957031-28.578126 32.847656v-9.984375c0-37.351562 30.277344-67.636718 67.628907-67.636718 4.390625 0 8.6875.421874 12.84375 1.222656 13.527343 2.597656 25.617187 9.230468 34.980469 18.589844 12.238281 12.238281 19.808593 29.148437 19.808593 47.824218zm0 0" fill="#585e68"/><path d="m86.882812 287.777344c-29.121093 5.042968-51.863281 28.738281-55.480468 58.335937-5.246094 8.175781-14.25 15.152344-23.800782 18.273438v-9.976563c0-37.359375 30.277344-67.636718 67.625-67.636718 3.96875 0 7.847657.335937 11.625.992187.011719 0 .023438 0 .03125.011719zm0 0" fill="#2f353f"/><path d="m323.035156 504.402344v.007812h-135.261718v-.007812c0-37.347656 30.277343-67.636719 67.625-67.636719 5.046874 0 9.96875.566406 14.6875 1.601563.234374.050781.457031.101562.679687.152343 12.511719 2.90625 23.683594 9.289063 32.464844 18.058594 12.238281 12.238281 19.804687 29.15625 19.804687 47.824219zm0 0" fill="#26a7bc"/><path d="m323.035156 504.402344v.007812h-105.886718v-.007812c0-32.304688 22.652343-59.332032 52.9375-66.035156.234374.050781.457031.101562.679687.152343 12.511719 2.90625 23.683594 9.289063 32.464844 18.058594 12.238281 12.238281 19.804687 29.15625 19.804687 47.824219zm0 0" fill="#84d2e4"/><path d="m323.039062 354.410156v46.054688c0 32.960937-23.578124 60.410156-54.789062 66.410156-4.15625.804688-8.453125 1.222656-12.847656 1.222656-37.351563 0-67.628906-30.28125-67.628906-67.628906v-46.058594c0-37.351562 30.277343-67.632812 67.628906-67.632812 4.394531 0 8.691406.417968 12.847656 1.21875 13.527344 2.597656 25.617188 9.230468 34.976562 18.589844 12.238282 12.238281 19.8125 29.148437 19.8125 47.824218zm0 0" fill="#ffd0a6"/><path d="m267.058594 467.09375c-3.789063.660156-7.679688 1.003906-11.660156 1.003906-37.347657 0-67.625-30.277344-67.625-67.636718v-46.046876c0-37.359374 30.277343-67.636718 67.625-67.636718 3.980468 0 7.871093.34375 11.660156 1.003906-31.796875 5.507812-55.988282 33.242188-55.988282 66.632812v46.046876c0 33.386718 24.191407 61.121093 55.988282 66.632812zm0 0" fill="#e8b185"/><path d="m323.039062 354.410156v9.984375c-80.070312-.101562-106.683593-32.847656-106.683593-32.847656 0 13.601563-13.601563 27.957031-28.582031 32.847656v-9.984375c0-37.351562 30.277343-67.636718 67.628906-67.636718 4.394531 0 8.691406.421874 12.847656 1.222656 13.527344 2.597656 25.617188 9.230468 34.976562 18.589844 12.238282 12.238281 19.8125 29.148437 19.8125 47.824218zm0 0" fill="#ffe261"/><path d="m267.058594 287.777344c-29.121094 5.042968-51.863282 28.738281-55.480469 58.335937-5.246094 8.175781-14.25 15.152344-23.804687 18.273438v-9.976563c0-37.359375 30.277343-67.636718 67.625-67.636718 3.972656 0 7.851562.335937 11.628906.992187.011718 0 .019531 0 .03125.011719zm0 0" fill="#f2a918"/><path d="m503.210938 504.402344v.007812h-135.261719v-.007812c0-37.347656 30.277343-67.636719 67.625-67.636719 5.042969 0 9.96875.566406 14.6875 1.601563.234375.050781.457031.101562.679687.152343 12.507813 2.90625 23.683594 9.289063 32.464844 18.058594 12.234375 12.238281 19.804688 29.15625 19.804688 47.824219zm0 0" fill="#f2a918"/><path d="m503.210938 504.402344v.007812h-105.886719v-.007812c0-32.304688 22.648437-59.332032 52.9375-66.035156.234375.050781.457031.101562.679687.152343 12.507813 2.90625 23.683594 9.289063 32.464844 18.058594 12.234375 12.238281 19.804688 29.15625 19.804688 47.824219zm0 0" fill="#ffe261"/><path d="m503.210938 354.410156v46.054688c0 32.960937-23.578126 60.410156-54.785157 66.410156-4.15625.804688-8.457031 1.222656-12.847656 1.222656-37.351563 0-67.628906-30.28125-67.628906-67.628906v-46.058594c0-37.351562 30.277343-67.632812 67.628906-67.632812 4.394531 0 8.691406.417968 12.847656 1.21875 13.527344 2.597656 25.617188 9.230468 34.976563 18.589844 12.238281 12.238281 19.808594 29.148437 19.808594 47.824218zm0 0" fill="#ffd0a6"/><path d="m447.230469 467.09375c-3.785157.660156-7.675781 1.003906-11.65625 1.003906-37.347657 0-67.625-30.277344-67.625-67.636718v-46.046876c0-37.359374 30.277343-67.636718 67.625-67.636718 3.980469 0 7.871093.34375 11.65625 1.003906-31.796875 5.507812-55.984375 33.242188-55.984375 66.632812v46.046876c0 33.386718 24.191406 61.121093 55.984375 66.632812zm0 0" fill="#e8b185"/><path d="m503.214844 354.410156v9.984375c-80.070313-.101562-106.683594-32.847656-106.683594-32.847656 0 13.601563-13.605469 27.957031-28.582031 32.847656v-9.984375c0-37.351562 30.277343-67.636718 67.628906-67.636718 4.394531 0 8.691406.421874 12.847656 1.222656 13.527344 2.597656 25.617188 9.230468 34.976563 18.589844 12.238281 12.238281 19.8125 29.148437 19.8125 47.824218zm0 0" fill="#87604d"/><path d="m447.234375 287.777344c-29.125 5.042968-51.863281 28.738281-55.480469 58.335937-5.246094 8.175781-14.253906 15.152344-23.804687 18.273438v-9.976563c0-37.359375 30.277343-67.636718 67.625-67.636718 3.96875 0 7.851562.335937 11.628906.992187.007813 0 .019531 0 .03125.011719zm0 0" fill="#59352c"/><path d="m293.988281 118.828125v42.011719c0 11.601562-9.402343 21.007812-21 21.007812h-34.75c-5.796875 0-11.050781-2.355468-14.851562-6.15625-3.804688-3.800781-6.15625-9.054687-6.15625-14.851562v-42.011719zm0 0" fill="#b8b8b8"/><path d="m293.988281 118.828125v42.011719c0 11.601562-9.402343 21.007812-21 21.007812h-18.691406c-5.796875 0-11.050781-2.355468-14.847656-6.15625-3.800781-3.800781-6.152344-9.054687-6.152344-14.851562v-42.011719zm0 0" fill="#ebebeb"/><path d="m306.597656 96.269531-13.023437 22.558594h-76.34375l-13.023438-22.558594c-14.125-24.46875-8.519531-52.730469 8.652344-70.648437 10.492187-10.9375 25.292969-18.019532 42.542969-18.019532 3.828125 0 7.527344.347657 11.09375 1.007813 38.835937 7.203125 60.941406 51.5625 40.101562 87.660156zm0 0" fill="#f2a918"/><path d="m306.597656 96.269531-13.023437 22.558594h-54.160157l-13.027343-22.558594c-14.128907-24.46875-8.519531-52.730469 8.65625-70.648437 8.164062-8.515625 18.941406-14.695313 31.453125-17.011719 38.835937 7.203125 60.941406 51.5625 40.101562 87.660156zm0 0" fill="#ffe261"/><path d="m88.476562 413.867188c-3.539062 3.539062-8.242187 5.488281-13.246093 5.488281-5.003907 0-9.707031-1.949219-13.242188-5.488281-2.96875-2.964844-7.777343-2.964844-10.746093 0-2.96875 2.96875-2.96875 7.777343 0 10.746093 6.40625 6.40625 14.925781 9.9375 23.988281 9.9375s17.582031-3.53125 23.992187-9.9375c2.964844-2.96875 2.964844-7.777343 0-10.746093-2.972656-2.964844-7.78125-2.964844-10.746094 0zm0 0"/><path d="m89.511719 280.535156c-2.273438-.4375-4.582031-.769531-6.90625-.996094v-40.015624h46.550781c4.195312 0 7.597656-3.402344 7.597656-7.597657 0-4.195312-3.402344-7.597656-7.597656-7.597656h-54.148438c-4.195312 0-7.597656 3.402344-7.597656 7.597656v47.660157c-37.820312 3.921874-67.40624975 35.980468-67.40624975 74.824218v46.054688c0 20.125 7.95703175 38.417968 20.87499975 51.929687-13.355468 13.9375-20.878906 32.46875-20.878906 52.007813 0 4.195312 3.402344 7.597656 7.597656 7.597656h135.261719c4.195313 0 7.597656-3.402344 7.597656-7.597656 0-19.519532-7.40625-37.894532-20.863281-51.96875 13.003906-13.625 20.867188-32.035156 20.867188-51.96875v-46.054688c0-20.09375-7.824219-38.984375-22.035157-53.199218-10.691406-10.6875-24.148437-17.839844-38.914062-20.675782zm-73.839844 216.269532c1.652344-13.027344 7.527344-25.125 16.777344-34.507813 12.15625 8.433594 26.894531 13.394531 42.777343 13.394531 4.808594 0 9.613282-.453125 14.28125-1.355468 10.511719-2.019532 20.152344-6.203126 28.527344-12.015626 9.316406 9.480469 15.125 21.5 16.753906 34.484376zm70.964844-37.386719c-3.726563.714843-7.5625 1.082031-11.410157 1.082031-33.101562 0-60.03125-26.933594-60.03125-60.035156v-30.929688c10.4375-4.820312 20.363282-13.636718 25.308594-24.121094 13.855469 10.074219 42.996094 25.046876 94.761719 26.460938v28.59375c0 28.738281-20.449219 53.53125-48.628906 58.949219zm48.628906-102.738281c-68.894531-2.007813-92.984375-29.683594-93.191406-29.925782-2.027344-2.496094-5.410157-3.441406-8.4375-2.367187-3.027344 1.074219-5.054688 3.941406-5.054688 7.160156 0 6.863281-5.589843 14.949219-13.324219 20.480469 1.257813-32.003906 27.667969-57.65625 59.972657-57.65625 3.84375 0 7.683593.363281 11.414062 1.082031 11.773438 2.265625 22.503907 7.96875 31.039063 16.5 11.339844 11.347656 17.582031 26.421875 17.582031 42.457031zm0 0"/><path d="m53.363281 395.941406v-16.625c0-4.195312-3.398437-7.597656-7.597656-7.597656-4.195313 0-7.597656 3.402344-7.597656 7.597656v16.625c0 4.195313 3.402343 7.597656 7.597656 7.597656 4.199219 0 7.597656-3.402343 7.597656-7.597656zm0 0"/><path d="m104.695312 371.71875c-4.199218 0-7.597656 3.402344-7.597656 7.597656v16.625c0 4.195313 3.398438 7.597656 7.597656 7.597656 4.195313 0 7.597657-3.402343 7.597657-7.597656v-16.625c0-4.195312-3.402344-7.597656-7.597657-7.597656zm0 0"/><path d="m268.648438 413.867188c-3.535157 3.539062-8.238282 5.488281-13.242188 5.488281s-9.707031-1.949219-13.246094-5.488281c-2.964844-2.964844-7.777344-2.964844-10.742187 0-2.96875 2.96875-2.96875 7.777343 0 10.746093 6.40625 6.40625 14.925781 9.9375 23.988281 9.9375s17.582031-3.53125 23.988281-9.9375c2.96875-2.96875 2.96875-7.777343 0-10.746093-2.96875-2.964844-7.777343-2.964844-10.746093 0zm0 0"/><path d="m233.539062 395.941406v-16.625c0-4.195312-3.398437-7.597656-7.597656-7.597656-4.195312 0-7.597656 3.402344-7.597656 7.597656v16.625c0 4.195313 3.402344 7.597656 7.597656 7.597656 4.199219 0 7.597656-3.402343 7.597656-7.597656zm0 0"/><path d="m284.871094 371.71875c-4.199219 0-7.597656 3.402344-7.597656 7.597656v16.625c0 4.195313 3.398437 7.597656 7.597656 7.597656 4.195312 0 7.59375-3.402343 7.59375-7.597656v-16.625c0-4.195312-3.398438-7.597656-7.59375-7.597656zm0 0"/><path d="m448.824219 413.867188c-3.535157 3.539062-8.242188 5.488281-13.246094 5.488281-5 0-9.707031-1.949219-13.242187-5.488281-2.96875-2.964844-7.777344-2.964844-10.746094 0-2.964844 2.96875-2.964844 7.777343 0 10.746093 6.410156 6.40625 14.929687 9.9375 23.992187 9.9375s17.578125-3.53125 23.988281-9.9375c2.96875-2.96875 2.96875-7.777343 0-10.746093-2.96875-2.964844-7.777343-2.964844-10.746093 0zm0 0"/><path d="m510.808594 354.410156c0-20.089844-7.824219-38.984375-22.035156-53.199218-10.6875-10.6875-24.144532-17.839844-38.910157-20.675782-2.132812-.410156-4.292969-.71875-6.46875-.941406v-47.667969c0-4.195312-3.398437-7.597656-7.597656-7.597656h-172.796875v-34.882813h9.777344c15.773437 0 28.601562-12.832031 28.601562-28.605468v-40.332032l11.796875-20.4375c12.0625-20.886718 12.0625-45.824218.003907-66.710937-12.0625-20.890625-33.660157-33.359375-57.777344-33.359375-18.378906 0-35.433594 7.234375-48.023438 20.367188-20.820312 21.714843-24.734375 53.746093-9.75 79.703124l11.796875 20.433594v40.335938c0 15.773437 12.832031 28.605468 28.605469 28.605468h9.773438v34.882813h-88.257813c-4.199219 0-7.597656 3.402344-7.597656 7.597656 0 4.195313 3.398437 7.597657 7.597656 7.597657h88.257813v40.035156c-37.925782 3.820312-67.628907 35.933594-67.628907 74.851562v46.054688c0 20.125 7.960938 38.414062 20.875 51.929687-13.355469 13.9375-20.878906 32.46875-20.878906 52.007813 0 4.195312 3.402344 7.597656 7.597656 7.597656h135.265625c4.195313 0 7.597656-3.402344 7.597656-7.597656 0-19.519532-7.410156-37.894532-20.863281-51.96875 13-13.625 20.863281-32.035156 20.863281-51.96875v-46.054688c0-20.09375-7.824218-38.984375-22.03125-53.199218-10.691406-10.691407-24.148437-17.839844-38.914062-20.675782-2.203125-.425781-4.4375-.746094-6.6875-.96875v-40.042968h165.199219v40.019531c-38.027344 3.71875-67.847657 35.871093-67.847657 74.867187v46.054688c0 20.125 7.960938 38.417968 20.875 51.929687-13.355468 13.9375-20.878906 32.46875-20.878906 52.007813 0 4.195312 3.402344 7.597656 7.597656 7.597656h135.265626c4.195312 0 7.59375-3.402344 7.59375-7.597656 0-19.515625-7.40625-37.894532-20.863282-51.964844 13.003906-13.625 20.867188-32.035156 20.867188-51.972656zm-292.464844-323.53125c9.699219-10.113281 22.859375-15.683594 37.058594-15.683594 18.625 0 35.304687 9.628907 44.617187 25.757813s9.3125 35.390625 0 51.519531l-10.828125 18.761719h-26.191406v-32.703125c0-4.195312-3.398438-7.597656-7.59375-7.597656-4.199219 0-7.597656 3.402344-7.597656 7.597656v32.699219h-26.1875l-10.832032-18.757813c-11.578124-20.046875-8.539062-44.800781 7.554688-61.59375zm6.277344 129.960938v-8.34375h48.824218c4.195313 0 7.597657-3.398438 7.597657-7.59375 0-4.199219-3.402344-7.597656-7.597657-7.597656h-48.824218v-10.878907h61.566406v34.414063c0 7.394531-6.015625 13.410156-13.410156 13.410156h-34.746094c-7.394531 0-13.410156-6.015625-13.410156-13.410156zm-28.773438 335.964844c1.652344-13.027344 7.523438-25.125 16.777344-34.507813 12.15625 8.433594 26.894531 13.394531 42.777344 13.394531 4.808594 0 9.613281-.453125 14.28125-1.355468 10.511718-2.019532 20.152344-6.203126 28.527344-12.015626 9.316406 9.480469 15.125 21.5 16.753906 34.484376zm70.964844-37.386719c-3.726562.714843-7.566406 1.082031-11.410156 1.082031-33.101563 0-60.03125-26.933594-60.03125-60.035156v-30.929688c10.4375-4.820312 20.363281-13.636718 25.308594-24.121094 13.855468 10.070313 42.996093 25.046876 94.757812 26.460938v28.589844c.003906 28.742187-20.445312 53.535156-48.625 58.953125zm31.042969-147.460938c11.339843 11.34375 17.585937 26.421875 17.585937 42.453125v2.269532c-68.894531-2.007813-92.988281-29.683594-93.191406-29.925782-2.027344-2.496094-5.410156-3.441406-8.4375-2.367187-3.03125 1.074219-5.054688 3.941406-5.054688 7.160156 0 6.863281-5.589843 14.953125-13.328124 20.480469 1.257812-32.003906 27.667968-57.65625 59.972656-57.65625 3.847656 0 7.683594.363281 11.414062 1.085937 11.773438 2.261719 22.507813 7.964844 31.039063 16.5zm137.722656-17.585937c3.84375 0 7.683594.363281 11.414063 1.085937 11.773437 2.261719 22.507812 7.96875 31.039062 16.5 11.339844 11.34375 17.585938 26.421875 17.585938 42.453125v2.269532c-68.894532-2.007813-92.988282-29.683594-93.191407-29.925782-2.027343-2.496094-5.410156-3.441406-8.4375-2.367187-3.03125 1.074219-5.054687 3.941406-5.054687 7.160156 0 6.863281-5.589844 14.953125-13.328125 20.480469 1.253906-32.003906 27.667969-57.65625 59.972656-57.65625zm-59.554687 202.433594c1.648437-13.027344 7.523437-25.125 16.773437-34.507813 12.15625 8.433594 26.898437 13.394531 42.78125 13.394531 4.808594 0 9.613281-.453125 14.28125-1.355468 10.507813-2.019532 20.152344-6.203126 28.527344-12.015626 9.3125 9.480469 15.121093 21.5 16.753906 34.484376zm70.964843-37.386719c-3.726562.714843-7.566406 1.082031-11.410156 1.082031-33.105469 0-60.035156-26.933594-60.035156-60.035156v-30.929688c10.441406-4.820312 20.363281-13.636718 25.3125-24.121094 13.851562 10.070313 42.996093 25.046876 94.757812 26.460938v28.589844c0 28.742187-20.449219 53.535156-48.625 58.953125zm0 0"/><path d="m413.714844 395.941406v-16.625c0-4.195312-3.402344-7.597656-7.597656-7.597656-4.195313 0-7.597657 3.402344-7.597657 7.597656v16.625c0 4.195313 3.402344 7.597656 7.597657 7.597656 4.195312 0 7.597656-3.402343 7.597656-7.597656zm0 0"/><path d="m465.042969 371.71875c-4.195313 0-7.597657 3.402344-7.597657 7.597656v16.625c0 4.195313 3.402344 7.597656 7.597657 7.597656 4.199219 0 7.597656-3.402343 7.597656-7.597656v-16.625c0-4.195312-3.398437-7.597656-7.597656-7.597656zm0 0"/><path d="m362.566406 68.484375c0 4.195313 3.398438 7.597656 7.597656 7.597656h31.28125c4.195313 0 7.597657-3.402343 7.597657-7.597656s-3.402344-7.597656-7.597657-7.597656h-31.28125c-4.199218 0-7.597656 3.402343-7.597656 7.597656zm0 0"/><path d="m359.96875 37.148438c1.492188 0 3.003906-.4375 4.324219-1.355469l24.480469-17.003907c3.445312-2.394531 4.300781-7.128906 1.90625-10.574218-2.390626-3.445313-7.125-4.300782-10.570313-1.90625l-24.484375 17.003906c-3.445312 2.394531-4.296875 7.125-1.90625 10.574219 1.476562 2.125 3.84375 3.261719 6.25 3.261719zm0 0"/><path d="m355.625 113.660156 24.484375 17.003906c1.320313.914063 2.828125 1.355469 4.324219 1.355469 2.40625 0 4.769531-1.136719 6.246094-3.261719 2.394531-3.445312 1.542968-8.179687-1.90625-10.574218l-24.480469-17.003906c-3.445313-2.394532-8.179688-1.539063-10.574219 1.90625-2.390625 3.445312-1.539062 8.179687 1.90625 10.574218zm0 0"/><path d="m115 76.082031h31.28125c4.199219 0 7.597656-3.402343 7.597656-7.597656s-3.398437-7.597656-7.597656-7.597656h-31.28125c-4.195312 0-7.597656 3.402343-7.597656 7.597656s3.402344 7.597656 7.597656 7.597656zm0 0"/><path d="m127.667969 18.789062 24.484375 17.003907c1.320312.917969 2.828125 1.355469 4.324218 1.355469 2.40625 0 4.769532-1.136719 6.246094-3.261719 2.394532-3.445313 1.542969-8.179688-1.90625-10.574219l-24.480468-17.003906c-3.445313-2.394532-8.179688-1.539063-10.570313 1.90625-2.394531 3.445312-1.542969 8.179687 1.902344 10.574218zm0 0"/><path d="m152.152344 101.179688-24.484375 17.003906c-3.445313 2.394531-4.296875 7.125-1.90625 10.574218 1.476562 2.125 3.84375 3.261719 6.25 3.261719 1.492187 0 3.003906-.441406 4.324219-1.359375l24.480468-17.003906c3.445313-2.390625 4.300782-7.125 1.90625-10.570312-2.390625-3.445313-7.125-4.300782-10.570312-1.90625zm0 0"/></svg>